Coordinates
version=1
nRows=12
nColumns=34
inDegrees=yes

Units are S.I. units (second, meters, Newtons, ...)
If the header above contains a line with 'inDegrees', this indicates whether rotational values are in degrees (yes) or radians (no).

endheader
time	pelvis_tilt	pelvis_list	pelvis_rotation	pelvis_tx	pelvis_ty	pelvis_tz	hip_flexion_r	hip_adduction_r	hip_rotation_r	knee_angle_r	ankle_angle_r	subtalar_angle_r	mtp_angle_r	hip_flexion_l	hip_adduction_l	hip_rotation_l	knee_angle_l	socket_flexion	socket_adduction	socket_rotation	socket_tx	socket_ty	socket_tz	pros_ankle_rx	pros_ankle_ry	pros_ankle_rz	pros_ankle_tx	pros_ankle_ty	pros_ankle_tz	foot_flex	lumbar_extension	lumbar_bending	lumbar_rotation
      0.60209000	      1.28602999	     -5.95225021	      5.50628700	      0.00230260	      1.02144598	      0.35263950	     18.78980078	      5.22312660	    -11.48078342	      4.28001378	     13.70604095	     10.39643987	      4.16245749	    -16.14755128	     -7.76485931	    -12.17079788	     18.85225617	     -2.13350127	     -1.47681641	     16.54226046	      0.00000000	     -0.00500670	      0.00000000	      0.00000000	      0.00000000	      0.00000000	      0.00000000	      0.00000000	      0.00000000	     14.73619501	    -19.83091214	      1.32435857	     -4.39493455
      0.60627000	      1.27824226	     -5.97470898	      5.69716273	      0.00837901	      1.02031663	      0.35261766	     18.89328153	      5.21038248	    -11.30135064	      4.09853328	     13.63046000	     10.42487711	      4.17583110	    -16.34924746	     -7.90338200	    -12.11833613	     18.98546325	     -1.99362763	     -1.48973964	     16.57187791	      0.00000000	     -0.00492927	      0.00000000	      0.00000000	      0.00000000	      0.00000000	      0.00000000	      0.00000000	      0.00000000	     14.77231233	    -19.79395676	      1.39580847	     -4.40101259
      0.61045000	      1.28768284	     -6.08776613	      5.79326207	      0.01441497	      1.01911711	      0.35263586	     19.13284462	      5.29315020	    -11.13672289	      3.58142736	     13.40530862	     10.38361742	      4.25276706	    -16.59583605	     -8.10281761	    -12.09040942	     19.12280606	     -1.88158701	     -1.46919366	     16.56683030	      0.00000000	     -0.00498483	      0.00000000	      0.00000000	      0.00000000	      0.00000000	      0.00000000	      0.00000000	      0.00000000	     14.89184778	    -19.80608772	      1.79800334	     -4.45944172
      0.61463000	      1.28704083	     -6.13239851	      6.01677999	      0.02067879	      1.01806173	      0.35258309	     19.20912269	      5.29846484	    -10.92706871	      3.30998140	     13.29518169	     10.41256867	      4.27329001	    -16.79710073	     -8.28129199	    -12.01001964	     19.25629282	     -1.73032077	     -1.47840876	     16.61913537	      0.00000000	     -0.00484333	      0.00000000	      0.00000000	      0.00000000	      0.00000000	      0.00000000	      0.00000000	      0.00000000	     14.90732149	    -19.75034650	      1.85548784	     -4.46682241
      0.61882000	      1.20069548	     -6.39493244	      6.15708282	      0.02688595	      1.01657961	      0.35263204	     19.70837549	      5.48121124	    -11.16224666	      2.45602515	     12.79173525	     10.52770484	      6.32417157	    -16.70589173	     -8.74351746	    -12.24363827	     20.05422676	     -1.99544862	     -1.61900989	     16.94262615	      0.00000000	     -0.00480633	      0.00000000	      0.00000000	      0.00000000	      0.00000000	      0.00000000	      0.00000000	      0.00000000	     14.98687782	    -19.55870215	      2.43555514	     -4.60005882
      0.62300000	      1.23711933	     -6.52206039	      6.27910441	      0.03305093	      1.01553763	      0.35268187	     19.89921061	      5.58102398	    -10.95242531	      1.84141780	     12.47138418	     10.45626528	      6.40735088	    -16.95379919	     -8.97158531	    -12.16554206	     20.18870748	     -1.82338138	     -1.58630058	     16.90068268	      0.00000000	     -0.00489023	      0.00000000	      0.00000000	      0.00000000	      0.00000000	      0.00000000	      0.00000000	      0.00000000	     14.99892671	    -19.62079555	      2.71632653	     -4.60854271
      0.62718000	      1.30917984	     -6.62694744	      6.40858855	      0.03927506	      1.01462775	      0.35271566	     20.04320440	      5.66299512	    -10.73848073	      1.19071120	     12.12254975	     10.39780019	      6.46274057	    -17.22113891	     -9.18193207	    -12.07901396	     20.36096583	     -1.65576092	     -1.56642197	     16.87640924	      0.00000000	     -0.00484414	      0.00000000	      0.00000000	      0.00000000	      0.00000000	      0.00000000	      0.00000000	      0.00000000	     15.01626702	    -19.59948873	      2.96652473	     -4.61155136
      0.63136000	      1.36207593	     -6.79357333	      6.49212216	      0.04550088	      1.01363594	      0.35278929	     20.30543671	      5.80230669	    -10.59887068	      0.34081573	     11.63616124	     10.23211757	      6.58165676	    -17.46928592	     -9.43591340	    -12.05286243	     20.53750718	     -1.48107298	     -1.54332227	     16.78495991	      0.00000000	     -0.00497624	      0.00000000	      0.00000000	      0.00000000	      0.00000000	      0.00000000	      0.00000000	      0.00000000	     15.00230842	    -19.67283778	      3.32781334	     -4.59858793
      0.63554000	      1.42983186	     -6.94404064	      6.58623176	      0.05178747	      1.01273778	      0.35288357	     20.52089413	      5.93385206	    -10.42706641	     -0.49195539	     11.16421821	     10.08529117	      6.70503125	    -17.71212366	     -9.68379767	    -12.00030049	     20.74614600	     -1.30498785	     -1.51463825	     16.71999248	      0.00000000	     -0.00504295	      0.00000000	      0.00000000	      0.00000000	      0.00000000	      0.00000000	      0.00000000	      0.00000000	     14.97394386	    -19.68404504	      3.64306663	     -4.57258071
      0.63972000	      1.49065945	     -7.12388618	      6.65705762	      0.05803791	      1.01184198	      0.35299816	     20.78948782	      6.09388535	    -10.28126552	     -1.42082766	     10.62209610	      9.88232951	      6.87222274	    -17.93168931	     -9.95142077	    -11.97132764	     20.98259853	     -1.11371457	     -1.50287936	     16.62355264	      0.00000000	     -0.00519336	      0.00000000	      0.00000000	      0.00000000	      0.00000000	      0.00000000	      0.00000000	      0.00000000	     14.91652473	    -19.72929866	      3.98603167	     -4.52454309
      0.64390000	      1.56597494	     -7.29316054	      6.71548420	      0.06434060	      1.01102904	      0.35319375	     21.03622894	      6.25531380	    -10.11871793	     -2.36854349	     10.07478839	      9.68422345	      7.03651968	    -18.14861192	    -10.21363541	    -11.93287685	     21.25283345	     -0.92362003	     -1.45442273	     16.52735668	      0.00000000	     -0.00530507	      0.00000000	      0.00000000	      0.00000000	      0.00000000	      0.00000000	      0.00000000	      0.00000000	     14.83693749	    -19.74232844	      4.31730357	     -4.46690506
      0.64808000	      1.62617279	     -7.47939900	      6.75859632	      0.07064755	      1.01025512	      0.35339302	     21.31442479	      6.43333671	     -9.97280633	     -3.36047773	      9.50593221	      9.45282262	      7.22237060	    -18.33007932	    -10.48124864	    -11.89831701	     21.54532928	     -0.71219259	     -1.44195730	     16.41366545	      0.00000000	     -0.00546313	      0.00000000	      0.00000000	      0.00000000	      0.00000000	      0.00000000	      0.00000000	      0.00000000	     14.72816723	    -19.77044291	      4.64076788	     -4.38913325
